<svg xmlns="http://www.w3.org/2000/svg" viewBox="0 0 921 123" fill="black">
  <path d="M 0 0 L 0 118 L 14 104 L 16 104 L 17 103 L 18 103 L 19 104 L 21 104 L 24 107 L 25 107 L 26 108 L 26 109 L 34 117 L 34 118 L 38 122 L 46 122 L 47 121 L 48 121 L 65 104 L 66 104 L 67 103 L 70 103 L 71 104 L 72 104 L 73 105 L 74 105 L 76 107 L 77 107 L 85 115 L 86 115 L 87 116 L 87 117 L 89 119 L 90 119 L 92 121 L 100 121 L 101 120 L 102 120 L 104 118 L 105 118 L 105 117 L 108 114 L 108 113 L 116 105 L 117 105 L 118 104 L 121 104 L 122 103 L 123 104 L 126 104 L 128 106 L 129 106 L 134 111 L 134 112 L 141 119 L 142 119 L 143 120 L 144 120 L 145 121 L 153 121 L 154 120 L 155 120 L 158 117 L 158 116 L 160 114 L 160 113 L 162 111 L 162 110 L 167 105 L 168 105 L 170 103 L 173 103 L 174 102 L 175 103 L 177 103 L 178 104 L 179 104 L 185 110 L 185 111 L 186 112 L 186 113 L 193 120 L 194 120 L 195 121 L 197 121 L 198 122 L 201 122 L 202 121 L 204 121 L 210 115 L 210 114 L 217 107 L 218 107 L 219 106 L 220 106 L 221 105 L 228 105 L 229 106 L 230 106 L 232 108 L 233 108 L 235 110 L 235 111 L 245 121 L 246 121 L 247 122 L 254 122 L 255 121 L 256 121 L 257 120 L 258 120 L 264 114 L 264 113 L 266 111 L 266 110 L 271 105 L 272 105 L 273 104 L 279 104 L 282 107 L 283 107 L 289 113 L 289 114 L 295 120 L 296 120 L 297 121 L 298 121 L 299 122 L 305 122 L 306 121 L 307 121 L 308 120 L 309 120 L 312 117 L 312 116 L 318 110 L 318 109 L 322 105 L 323 105 L 324 104 L 326 104 L 327 103 L 328 104 L 330 104 L 331 105 L 332 105 L 334 107 L 335 107 L 345 117 L 345 118 L 348 121 L 349 121 L 350 122 L 357 122 L 358 121 L 359 121 L 362 118 L 363 118 L 363 117 L 369 111 L 369 110 L 375 104 L 376 104 L 377 103 L 381 103 L 382 104 L 383 104 L 384 105 L 385 105 L 387 107 L 388 107 L 397 116 L 397 117 L 401 121 L 402 121 L 403 122 L 409 122 L 410 121 L 411 121 L 413 119 L 414 119 L 416 117 L 416 116 L 427 105 L 428 105 L 429 104 L 430 104 L 431 103 L 433 103 L 434 104 L 436 104 L 438 106 L 439 106 L 442 109 L 442 110 L 445 113 L 445 114 L 450 119 L 451 119 L 452 120 L 453 120 L 454 121 L 462 121 L 463 120 L 464 120 L 465 119 L 466 119 L 471 114 L 471 113 L 474 110 L 474 109 L 477 106 L 478 106 L 480 104 L 482 104 L 483 103 L 485 103 L 486 104 L 487 104 L 488 105 L 489 105 L 500 116 L 500 117 L 502 119 L 503 119 L 505 121 L 506 121 L 507 122 L 513 122 L 514 121 L 515 121 L 519 117 L 519 116 L 528 107 L 529 107 L 531 105 L 532 105 L 533 104 L 534 104 L 535 103 L 539 103 L 540 104 L 541 104 L 547 110 L 547 111 L 553 117 L 553 118 L 554 118 L 557 121 L 558 121 L 559 122 L 566 122 L 567 121 L 568 121 L 571 118 L 571 117 L 581 107 L 582 107 L 584 105 L 585 105 L 586 104 L 588 104 L 589 103 L 590 104 L 592 104 L 593 105 L 594 105 L 598 109 L 598 110 L 604 116 L 604 117 L 607 120 L 608 120 L 609 121 L 610 121 L 611 122 L 617 122 L 618 121 L 619 121 L 620 120 L 621 120 L 627 114 L 627 113 L 633 107 L 634 107 L 637 104 L 643 104 L 644 105 L 645 105 L 650 110 L 650 111 L 652 113 L 652 114 L 658 120 L 659 120 L 660 121 L 661 121 L 662 122 L 669 122 L 670 121 L 671 121 L 681 111 L 681 110 L 683 108 L 684 108 L 686 106 L 687 106 L 688 105 L 695 105 L 696 106 L 697 106 L 698 107 L 699 107 L 706 114 L 706 115 L 712 121 L 714 121 L 715 122 L 718 122 L 719 121 L 721 121 L 722 120 L 723 120 L 730 113 L 730 112 L 731 111 L 731 110 L 737 104 L 738 104 L 739 103 L 741 103 L 742 102 L 743 103 L 746 103 L 748 105 L 749 105 L 754 110 L 754 111 L 756 113 L 756 114 L 758 116 L 758 117 L 761 120 L 762 120 L 763 121 L 771 121 L 772 120 L 773 120 L 774 119 L 775 119 L 782 112 L 782 111 L 787 106 L 788 106 L 790 104 L 793 104 L 794 103 L 795 104 L 798 104 L 799 105 L 800 105 L 808 113 L 808 114 L 811 117 L 811 118 L 812 118 L 814 120 L 815 120 L 816 121 L 824 121 L 826 119 L 827 119 L 829 117 L 829 116 L 830 115 L 831 115 L 839 107 L 840 107 L 842 105 L 843 105 L 844 104 L 845 104 L 846 103 L 849 103 L 850 104 L 851 104 L 868 121 L 869 121 L 870 122 L 878 122 L 882 118 L 882 117 L 890 109 L 890 108 L 891 107 L 892 107 L 895 104 L 897 104 L 898 103 L 899 103 L 900 104 L 902 104 L 920 122 L 920 0 Z" />
</svg>
